<svg width="20" height="21" viewBox="0 0 20 21" fill="currentColor" stroke="currentColor"  stroke-linecap="round" stroke-linejoin="round" stroke-width=".3"  class="feather feather-calendar" xmlns="http://www.w3.org/2000/svg">
<path d="M15.2734 13.9032C13.4426 13.9032 11.9531 12.4021 11.9531 10.5571C11.9531 8.71202 13.4426 7.21094 15.2734 7.21094C17.1043 7.21094 18.5938 8.71202 18.5938 10.5571C18.5938 12.4021 17.1043 13.9032 15.2734 13.9032ZM15.2734 8.78559C14.3042 8.78559 13.5156 9.58028 13.5156 10.5571C13.5156 11.5339 14.3042 12.3286 15.2734 12.3286C16.2427 12.3286 17.0312 11.5339 17.0312 10.5571C17.0312 9.58028 16.2427 8.78559 15.2734 8.78559ZM9.0625 19.4932C9.0625 19.0584 8.71273 18.7059 8.28125 18.7059H4.68668C2.96402 18.7059 1.5625 17.2935 1.5625 15.5574V4.84813C1.5625 3.11208 2.96402 1.69965 4.68668 1.69965H11.8766C13.5993 1.69965 15.0008 3.11208 15.0008 4.84813C15.0008 5.28297 15.3505 5.63546 15.782 5.63546C16.2135 5.63546 16.5633 5.28297 16.5633 4.84813C16.5633 2.24381 14.4609 0.125 11.8758 0.125L4.68668 0.125C2.10246 0.125 0 2.24381 0 4.84813L0 15.5574C0 18.1617 2.10246 20.2806 4.68668 20.2806H8.28125C8.71273 20.2806 9.0625 19.9281 9.0625 19.4932ZM10.3516 9.06115C10.3516 8.62631 10.0018 8.27383 9.57031 8.27383H5.74219C5.3107 8.27383 4.96094 8.62631 4.96094 9.06115C4.96094 9.49599 5.3107 9.84848 5.74219 9.84848H9.57031C10.0018 9.84848 10.3516 9.49599 10.3516 9.06115ZM10.3516 15.0842C10.3516 14.6494 10.0018 14.2969 9.57031 14.2969H5.74219C5.3107 14.2969 4.96094 14.6494 4.96094 15.0842C4.96094 15.519 5.3107 15.8715 5.74219 15.8715H9.57031C10.0018 15.8715 10.3516 15.519 10.3516 15.0842ZM10.3516 12.053C10.3516 11.6182 10.0018 11.2657 9.57031 11.2657H5.74219C5.3107 11.2657 4.96094 11.6182 4.96094 12.053C4.96094 12.4878 5.3107 12.8403 5.74219 12.8403H9.57031C10.0018 12.8403 10.3516 12.4878 10.3516 12.053Z"/>
<path d="M19.2188 20.2801C18.7873 20.2801 18.4375 19.9276 18.4375 19.4928C18.4375 17.9299 17.1841 16.6584 15.6436 16.6584H14.9815C13.4409 16.6584 12.1875 17.9299 12.1875 19.4928C12.1875 19.9276 11.8377 20.2801 11.4062 20.2801C10.9748 20.2801 10.625 19.9276 10.625 19.4928C10.625 17.0616 12.5793 15.0838 14.9814 15.0838H15.6435C18.0457 15.0838 20 17.0616 20 19.4928C20 19.9276 19.6502 20.2801 19.2188 20.2801ZM11.9141 6.02951C11.9141 5.59467 11.5643 5.24219 11.1328 5.24219H5.74219C5.3107 5.24219 4.96094 5.59467 4.96094 6.02951C4.96094 6.46435 5.3107 6.81684 5.74219 6.81684H11.1328C11.5643 6.81684 11.9141 6.46435 11.9141 6.02951Z" 
/>
</svg>
