<svg xmlns="http://www.w3.org/2000/svg" viewBox="0 0 370.21 383.54"><g id="Layer_2" data-name="Layer 2"><g id="Layer_1-2" data-name="Layer 1"><path d="M81,0h9c7.49,3.13,10.69,8.93,10.53,16.85,0,1.87,0,3.74,0,5.61,0,5.63,0,5.66,5.6,5.66H258.41c11.09,0,11.09,0,11.21-10.91,0-.12,0-.25,0-.37-.18-7.92,3-13.72,10.53-16.85h9c7.59,3.61,10.67,9.71,10,17.94-.15,1.86.15,3.76-.05,5.61-.4,3.71,1.27,4.78,4.77,4.63,5.23-.22,10.48-.09,15.72,0,27.76.31,50.45,22.49,50.52,50.23q.29,127.41,0,254.82c-.06,27.89-23,50.3-50.85,50.31q-134.15.08-268.29,0a44,44,0,0,1-7.08-.38C18.05,378.91.08,357.86,0,331.7q-.09-59.13,0-118.24,0-67,0-134A51.65,51.65,0,0,1,34.81,30.64c8.47-3,17.2-2.49,25.91-2.51,10.35,0,10.64,0,10.27-10.19C70.69,9.69,73.45,3.61,81,0ZM184.85,354.53q65.67,0,131.35,0c7.44,0,14.06-1.86,19.1-7.7,4.14-4.79,5.39-10.41,5.39-16.66q-.12-115.62-.05-231.26c0-6.86.09-13.72-.06-20.58a21.35,21.35,0,0,0-17.1-20.48c-7.27-1.48-14.67-.51-22-.63-2,0-2.36,1.47-2.36,3.11,0,3.75.09,7.49-.09,11.23a14.56,14.56,0,0,1-28.9,1.94,50.67,50.67,0,0,1-.5-9.69c0-6.66,0-6.67-6.47-6.67H105.6c-4.82,0-5,.21-5.06,5.08-.06,3.61.23,7.23-.43,10.82C98.66,81,92.22,86.13,84.43,85.51A14.76,14.76,0,0,1,71.11,70.9c-.09-3.24-.18-6.49,0-9.73S69.92,57,66.9,57.11c-4.61.17-9.23,0-13.84,0-14.29.07-23.51,9.16-23.52,23.34q0,125.35,0,250.72a27.71,27.71,0,0,0,.56,6.31c2.49,10.61,11.26,17,23.39,17Q119.19,354.57,184.85,354.53Z"/><path d="M85.31,287.46a18.17,18.17,0,1,1,18.08,18.14A18.16,18.16,0,0,1,85.31,287.46Z"/><path d="M259.78,234.54a18.06,18.06,0,0,1-18.33-18.2,18.3,18.3,0,0,1,18.17-18.11,18.54,18.54,0,0,1,18.22,18.15A18.27,18.27,0,0,1,259.78,234.54Z"/><path d="M259.51,305.61a18.17,18.17,0,1,1,18.33-18A18.42,18.42,0,0,1,259.51,305.61Z"/><path d="M199.57,216.45a17.82,17.82,0,0,1-17.94,18.09,18.18,18.18,0,0,1-18.34-18.27,18.57,18.57,0,0,1,18.33-18A18,18,0,0,1,199.57,216.45Z"/><path d="M103.51,163.47a17.85,17.85,0,0,1-18.2-17.85,18.17,18.17,0,1,1,36.34-.07A17.88,17.88,0,0,1,103.51,163.47Z"/><path d="M259.43,163.47a17.82,17.82,0,0,1-17.92-18.09,18.15,18.15,0,1,1,36.29.35A18,18,0,0,1,259.43,163.47Z"/><path d="M181.41,163.47a18,18,0,0,1-18.13-18c-.07-9.79,8.68-18.4,18.54-18.22a18.22,18.22,0,0,1,17.75,18.45C199.52,155.86,191.73,163.5,181.41,163.47Z"/><path d="M103.43,234.54a18.06,18.06,0,0,1-18.11-18,18.17,18.17,0,1,1,36.33.08A18.08,18.08,0,0,1,103.43,234.54Z"/><path d="M199.56,287.25a17.93,17.93,0,0,1-17.75,18.35,18.17,18.17,0,1,1-.37-36.33A18,18,0,0,1,199.56,287.25Z"/></g></g></svg>