<svg width="52" height="52" viewBox="0 0 52 52" fill="none" xmlns="http://www.w3.org/2000/svg">
<path d="M26 0C40.3598 0 52 11.6402 52 26C52 40.3598 40.3598 52 26 52C11.6402 52 0 40.3598 0 26C0 11.6402 11.6402 0 26 0ZM26 5.2C14.5132 5.2 5.2 14.5132 5.2 26C5.2 37.4868 14.5132 46.8 26 46.8C37.4868 46.8 46.8 37.4868 46.8 26C46.8 14.5132 37.4868 5.2 26 5.2ZM26 7.8C28.6468 7.8 31.161 8.3642 33.4308 9.3808L29.367 13.442C28.2932 13.156 27.1648 13 26 13C18.8214 13 13 18.8214 13 26C13 29.588 14.456 32.838 16.8064 35.1936L13.13 38.87L12.7244 38.4514C9.672 35.1962 7.8 30.8152 7.8 26C7.8 15.9484 15.9484 7.8 26 7.8ZM42.6192 18.5718C43.6332 20.839 44.2 23.3558 44.2 26C44.2 31.0258 42.1616 35.5758 38.87 38.87L35.1936 35.1936C37.544 32.838 39 29.588 39 26C39 24.8352 38.8466 23.7068 38.558 22.633L42.6192 18.5718ZM37.0292 11.2918L40.7082 14.9682L31.0258 24.6558C31.1402 25.0848 31.2 25.5346 31.2 26C31.2 28.873 28.873 31.2 26 31.2C23.127 31.2 20.8 28.873 20.8 26C20.8 23.127 23.127 20.8 26 20.8C26.4654 20.8 26.9152 20.8598 27.3442 20.9742L37.0318 11.2918H37.0292Z" fill="white"/>
</svg>
