<svg width="21" height="19" viewBox="0 0 21 19" fill="none" xmlns="http://www.w3.org/2000/svg">
<rect x="16.7998" y="16.332" width="1.28591" height="4.29016" transform="rotate(-53.0146 16.7998 16.332)" fill="#015EEA"/>
<path d="M17.7536 12.5543C17.7482 13.8481 17.2303 15.087 16.3133 15.9998C15.3963 16.9125 14.155 17.4248 12.8612 17.4242C10.2107 17.4 7.99497 15.1246 8.0267 12.4591C8.05657 9.84583 10.3133 7.63391 12.9135 7.65444C13.5547 7.65263 14.1897 7.77859 14.7817 8.02493C15.3737 8.27128 15.9106 8.63306 16.3612 9.08921C16.8118 9.54535 17.167 10.0867 17.4061 10.6817C17.6451 11.2766 17.7633 11.9132 17.7536 12.5543ZM16.5496 12.5543C16.5627 12.0694 16.478 11.5868 16.3008 11.1353C16.1235 10.6838 15.8573 10.2725 15.5179 9.92594C15.1785 9.5794 14.7729 9.30466 14.3251 9.11805C13.8774 8.93145 13.3967 8.83682 12.9116 8.83975C11.9482 8.84827 11.026 9.23173 10.3405 9.90881C9.65511 10.5859 9.26034 11.5033 9.24 12.4665C9.21386 14.4955 10.8677 16.2165 12.8668 16.2371C13.3526 16.2426 13.8346 16.1509 14.2844 15.9673C14.7342 15.7837 15.1427 15.5119 15.4859 15.1681C15.8291 14.8242 16.1 14.4151 16.2827 13.9649C16.4654 13.5148 16.5561 13.0326 16.5496 12.5468V12.5543Z" fill="#015EEA"/>
<path d="M5.47256 5.48202H3.72544C3.31106 5.48202 2.99184 5.36068 3.00118 4.86416C3.01051 4.42364 3.29425 4.30417 3.67504 4.29297C4.90202 4.29297 6.12837 4.29297 7.3541 4.29297C7.74982 4.29297 7.9962 4.47963 7.98686 4.90148C7.97753 5.32333 7.6901 5.47081 7.31304 5.47454C6.69893 5.47454 6.08667 5.47454 5.47256 5.47454V5.48202Z" fill="#015EEA"/>
<path d="M5.50848 8.27734C4.86637 8.27734 4.22242 8.27734 3.57844 8.27734C3.50193 8.28616 3.42443 8.27789 3.3515 8.25314C3.27856 8.22839 3.21202 8.18776 3.15668 8.1342C3.10133 8.08064 3.05853 8.01548 3.0314 7.94339C3.00428 7.87131 2.99347 7.79412 2.99978 7.71736C2.98728 7.64029 2.99254 7.56141 3.01513 7.48668C3.03773 7.41195 3.07706 7.34335 3.13016 7.28612C3.18325 7.22888 3.24873 7.18451 3.32156 7.15638C3.39438 7.12825 3.47263 7.11711 3.55042 7.12379C4.8365 7.10886 6.12262 7.11073 7.40871 7.12379C7.48522 7.11498 7.56273 7.12324 7.63566 7.14799C7.70859 7.17274 7.77513 7.21333 7.83048 7.26689C7.88582 7.32045 7.92858 7.38561 7.95571 7.45769C7.98283 7.52978 7.99364 7.60701 7.98733 7.68377C7.98733 8.11496 7.74655 8.28108 7.3471 8.28108C6.73486 8.28108 6.12072 8.28108 5.50848 8.28108V8.27734Z" fill="#015EEA"/>
<path d="M5.31584 10.6704C4.7316 10.6704 4.1492 10.6704 3.56682 10.6704C3.41285 10.6704 3.26522 10.6092 3.15635 10.5004C3.04749 10.3915 2.98633 10.2438 2.98633 10.0899C2.98633 9.9359 3.04749 9.78827 3.15635 9.67941C3.26522 9.57054 3.41285 9.50933 3.56682 9.50933C4.85477 9.49689 6.14334 9.49689 7.43254 9.50933C7.6416 9.50933 7.92349 9.54667 7.88429 9.83599C7.82829 10.2466 7.63787 10.6312 7.15816 10.6592C6.54778 10.6947 5.93183 10.6592 5.31958 10.6592L5.31584 10.6704Z" fill="#015EEA"/>
<path d="M5.10718 12.4102C5.5365 12.4102 5.96766 12.4102 6.39698 12.4102C6.79084 12.4102 7.04843 12.5539 7.05403 12.9926C7.05403 13.3845 6.8282 13.5525 6.48102 13.5637C5.52905 13.5787 4.57707 13.5787 3.62511 13.5637C3.23499 13.5637 2.98485 13.3547 3.00725 12.9272C3.02778 12.5352 3.28166 12.412 3.63258 12.412C4.1235 12.412 4.61626 12.4102 5.10718 12.4102Z" fill="#015EEA"/>
<path d="M0.0080532 8.43223C0.0080532 6.43124 0.0080532 4.42839 0.0080532 2.42552C0.0080532 0.906109 0.715503 0.0661273 2.20878 0.0343951C4.98069 -0.0272028 7.75447 0.0138825 10.5264 0.0082827C10.7111 0.00934441 10.8929 0.0539998 11.057 0.138662C11.2211 0.223325 11.3629 0.345573 11.4708 0.49544C12.8484 2.15298 14.2322 3.80618 15.6222 5.45501C16.1672 6.10273 16.0123 6.85872 15.9227 7.57549C15.8686 8.01414 15.4467 7.87415 15.2974 7.66882C14.5657 6.66086 13.5148 6.93525 12.5385 6.92218C10.7111 6.90165 10.0112 6.22405 9.99998 4.42091C9.99998 3.62014 9.97758 2.81939 9.99998 2.01862C10.0186 1.43997 9.81332 1.18239 9.20481 1.18799C6.95555 1.21039 4.70627 1.18796 2.45888 1.20476C1.50505 1.21409 1.21761 1.52768 1.21574 2.51138C1.20703 6.48475 1.20703 10.4594 1.21574 14.4353C1.21574 15.5104 1.38935 15.684 2.44585 15.6933C3.95593 15.7064 5.46414 15.6933 6.97423 15.6933C7.28035 15.6933 7.60884 15.6411 7.87389 15.824C8.17815 16.0312 8.58694 16.3112 8.52721 16.6528C8.45254 17.0765 7.96724 16.8786 7.65365 16.8805C5.86669 16.9016 4.08036 16.9016 2.29464 16.8805C0.777093 16.8674 0.0173844 16.1133 0.00618478 14.6032C-0.00874804 12.5612 0.0080532 10.4967 0.0080532 8.43223ZM11.4149 1.92155L11.2021 1.99246C11.2021 2.44791 11.2021 2.90524 11.2021 3.36069C11.1927 5.86381 10.9781 5.73876 13.7481 5.7145C13.9348 5.7145 14.1457 5.76116 14.254 5.5745C14.3622 5.38784 14.1849 5.23477 14.0673 5.09851C13.1825 4.03828 12.2965 2.97929 11.4093 1.92155H11.4149Z" fill="#015EEA"/>
</svg>
